<svg xmlns="http://www.w3.org/2000/svg" xmlns:svg="http://www.w3.org/2000/svg" id="Layer_1" width="450" height="450" x="0" y="0" enable-background="new 0 0 32 32" version="1.1" viewBox="0 0 450 450" xml:space="preserve"><metadata id="metadata3342"/><path id="path4166" fill="#fff" fill-opacity="1" fill-rule="evenodd" stroke="none" stroke-dasharray="none" stroke-miterlimit="8" stroke-opacity="1" stroke-width="30" d="M 225,4.822271 A 219.43977,220.17862 0 0 0 5.56055,225 219.43977,220.17862 0 0 0 225,445.17773 219.43977,220.17862 0 0 0 444.43945,225 219.43977,220.17862 0 0 0 225,4.822271 Z" opacity="1"/><path id="path3" fill="#357ec7" fill-opacity="1" d="m 40.485938,240.14157 57.385762,31.63487 52.29738,-48.48157 -48.82337,-46.36512 -60.859772,33.74747 c 0,0 -11.79115,5.18494 -11.79115,13.75119 0,9.76351 11.79115,15.71316 11.79115,15.71316 z M 330.69181,55.944003 c -1.00802,-0.264557 -2.07591,-0.453803 -3.28669,-0.453803 -9.14751,0 -17.68672,5.893642 -17.68672,5.893642 L 120.93454,166.06745 162.75004,211.63117 330.69181,55.944003 Z M 175.41596,225.43257 330.31525,394.21628 c 13.02896,-2.61082 10.86423,-22.44682 10.84299,-24.42618 l 0,-294.656994 c 0,0 0.23945,-16.049175 -10.16325,-19.100274 L 175.41596,225.43257 Z m -54.31728,59.14497 186.65388,102.88963 c 0,0 11.90122,7.04263 19.58111,7.04263 1.03119,0 1.98321,-0.0927 2.86958,-0.2607 L 164.70622,237.0924 121.09868,284.57754 Z"/></svg>