<svg xmlns="http://www.w3.org/2000/svg" xmlns:svg="http://www.w3.org/2000/svg" id="Layer_1" width="450" height="450" x="0" y="0" enable-background="new 0 0 32 32" version="1.1" viewBox="0 0 450 450" xml:space="preserve"><metadata id="metadata3342"/><rect id="rect4417" width="423.425" height="424.094" x="13.288" y="12.953" fill="none" fill-opacity="1" stroke="#fff" stroke-dasharray="none" stroke-linecap="butt" stroke-miterlimit="4" stroke-opacity="1" stroke-width="28.136" rx="79.601" ry="79.601"/><path id="path3" fill="#fff" fill-opacity="1" d="m 80.485941,240.14157 57.385759,31.63487 52.29738,-48.48157 -48.82337,-46.36512 -60.859769,33.74747 c 0,0 -11.79115,5.18494 -11.79115,13.75119 0,9.76351 11.79115,15.71316 11.79115,15.71316 z M 370.69181,55.944004 c -1.00802,-0.264557 -2.07591,-0.453803 -3.28669,-0.453803 -9.14751,0 -17.68672,5.893642 -17.68672,5.893642 L 160.93454,166.06745 202.75004,211.63117 370.69181,55.944004 Z M 215.41596,225.43257 370.31525,394.21628 c 13.02896,-2.61082 10.86423,-22.44682 10.84299,-24.42618 l 0,-294.656993 c 0,0 0.23945,-16.049175 -10.16325,-19.100274 L 215.41596,225.43257 Z m -54.31728,59.14497 186.65388,102.88963 c 0,0 11.90122,7.04263 19.58111,7.04263 1.03119,0 1.98321,-0.0927 2.86958,-0.2607 L 204.70622,237.0924 161.09868,284.57754 Z"/></svg>