<svg xmlns="http://www.w3.org/2000/svg" xmlns:svg="http://www.w3.org/2000/svg" id="Layer_1" width="450" height="450" x="0" y="0" enable-background="new 0 0 32 32" version="1.1" viewBox="0 0 450 450" xml:space="preserve"><metadata id="metadata3342"/><g id="layer2"><path id="path4166" fill="#fff" fill-opacity="1" fill-rule="evenodd" stroke="none" stroke-dasharray="none" stroke-miterlimit="8" stroke-opacity="1" stroke-width="30" d="M 225 4.8222656 A 219.43977 220.17862 0 0 0 5.5605469 225 A 219.43977 220.17862 0 0 0 225 445.17773 A 219.43977 220.17862 0 0 0 444.43945 225 A 219.43977 220.17862 0 0 0 225 4.8222656 z M 324.34961 68.125 C 325.46639 68.125 326.45111 68.300083 327.38086 68.544922 L 172.47656 212.62695 L 133.9082 170.45898 L 308.03516 73.578125 C 308.03516 73.578125 315.91231 68.125 324.34961 68.125 z M 327.66016 68.626953 C 337.2552 71.450642 337.0332 86.302734 337.0332 86.302734 L 337.0332 358.99805 C 337.05279 360.82988 339.05059 379.1873 327.0332 381.60352 L 184.16016 225.40039 L 327.66016 68.626953 z M 115.83984 180.51172 L 160.87305 223.42188 L 112.63672 268.28906 L 59.705078 239.01367 C 59.705078 239.01367 48.830078 233.50649 48.830078 224.4707 C 48.830078 216.54293 59.705078 211.74414 59.705078 211.74414 L 115.83984 180.51172 z M 174.28125 236.19141 L 326.92969 381.63477 C 326.11213 381.79024 325.23433 381.875 324.2832 381.875 C 317.19957 381.875 306.22266 375.35742 306.22266 375.35742 L 134.06055 280.13672 L 174.28125 236.19141 z" opacity="1"/></g></svg>